<svg xmlns="http://www.w3.org/2000/svg" viewBox="0 0 215 22"><g><g><path fill="#4a4a4a" d="M211.85975,2.57747H210.123V5.4016h1.73674Zm-27.69812.2017h-9.23869V4.746h9.23869Zm22.90831-.19272-.00015-.00824-2.13856-.00074-.00015.009V16.6982h2.13886l.00053-6.7489a54.37424,54.37424,0,0,1,7.22916,2.57493V10.02461A66.76032,66.76032,0,0,0,207.06994,7.598Zm5.67245-.009V5.4016h1.76509V2.57747ZM199.236,4.6471h-3.132l.00046-2.06963h-2.13695L193.967,4.6471h-3.05275a1.80156,1.80156,0,0,0-2.07077,2.00432v3.081h2.104V7.19818c0-.51354.16591-.67927.74551-.67927h6.88027c.54682,0,.74551.16573.74551.64615v.116a7.46231,7.46231,0,0,1-1.78919,4.80417,9.43114,9.43114,0,0,1-4.74495,2.51694l-.00129,2.09605a11.12933,11.12933,0,0,0,6.08813-2.97314A9.83439,9.83439,0,0,0,201.50528,7.099c0-.06649.00022-.1492,0-.21569C201.50051,5.39951,200.89262,4.6471,199.236,4.6471ZM183.999,6.71283H173.55929V8.68406h9.56142c.44768,0,.62953.16572.62953.43065a.94164.94164,0,0,1-.04949.29827c-.6986,2.52424-2.95022,4.61262-7.14335,5.1893V16.6982c5.34883-.48735,8.53888-3.54425,9.34642-7.28522a4.02872,4.02872,0,0,0,.09976-.845,1.82343,1.82343,0,0,0-.26524-1.02682A1.85191,1.85191,0,0,0,183.999,6.71283ZM168.76609,3.784l-4.59212,0c.1612-.38657.30972-.78937.44263-1.20654h-2.30378a10.1949,10.1949,0,0,1-1.47859,2.77193,10.63224,10.63224,0,0,1-1.96467,2.047v2.605a14.2436,14.2436,0,0,0,3.57217-3.21789,11.49566,11.49566,0,0,0,.75548-1.09065l4.69056.00012c.48864-.00252.6607.15569.6422.45623a2.44775,2.44775,0,0,1-.03373.27017,10.72461,10.72461,0,0,1-7.89751,8.11885v2.16h.00206a12.9311,12.9311,0,0,0,10.1759-10.211,3.997,3.997,0,0,0,.08443-.74333A1.82968,1.82968,0,0,0,168.76609,3.784Z"/><path fill="#0054ac" d="M37.83747,2.40173l2.0887,14.31339H37.18911l-1.10953-8.653H36.043l-3.1616,8.83835H31.9388L28.88529,8.06208h-.03571L27.61,16.71512H24.8729L27.22107,2.40173h1.92381l3.43935,9.19233,3.29189-9.19233Zm12.61466,9.78383a4.77058,4.77058,0,1,1-9.54051,0,4.77083,4.77083,0,1,1,9.54051,0Zm-2.62409,0a2.178,2.178,0,1,0-4.29136,0,2.17548,2.17548,0,1,0,4.29136,0Zm9.28532-4.84508a2.71028,2.71028,0,0,0-2.36663,1.1278h-.03766V7.63559H52.12063v9.07953h2.58844v-4.492c0-1.09215.01937-2.81134,1.55326-2.81134,1.46076,0,1.40573,1.40567,1.40573,2.49679v4.80651h2.5885V11.16769C60.25656,9.06064,59.55421,7.34048,57.11336,7.34048ZM70.6212,12.27813v.31449H64.64929c0,1.14517.44191,2.441,1.79255,2.441a1.89678,1.89678,0,0,0,1.73857-1.23883l2.38583.38774a4.17639,4.17639,0,0,1-4.1244,2.82975c-2.81037,0-4.52956-1.99706-4.52956-4.75344,0-2.75437,1.46064-4.91833,4.40135-4.91833C69.28987,7.34048,70.6212,9.54015,70.6212,12.27813Zm-2.44079-1.29471A1.896,1.896,0,0,0,66.46018,9.1532a1.86925,1.86925,0,0,0-1.73753,1.83022Zm7.94878,1.8137-2.165-5.16153H71.02452l3.86487,7.6961-2.99556,6.22943H74.741L81.34471,7.63559H78.45817Zm25.731-.61156a4.772,4.772,0,1,1-9.54344,0,4.77228,4.77228,0,1,1,9.54344,0Zm-2.626,0a2.178,2.178,0,1,0-4.29136,0,2.17548,2.17548,0,1,0,4.29136,0Zm6.732-3.60637h-.03674v-.9436h-2.58942v9.07953h2.58942V12.63028c0-1.40574.18433-2.9966,1.97871-2.9966a1.84138,1.84138,0,0,1,1.0729.3329l.31449-2.40423a3.01544,3.01544,0,0,0-1.07375-.22187A2.59728,2.59728,0,0,0,105.9661,8.57919Zm26.63792-.9436h2.55176v9.07953H132.604v-.83068h-.03668a3.14023,3.14023,0,0,1-2.46017,1.12781c-2.66376,0-4.17948-2.42446-4.17948-4.88177,0-2.40515,1.5351-4.79,4.14182-4.79A3.35673,3.35673,0,0,1,132.604,8.48754Zm.25856,4.53255a2.18284,2.18284,0,1,0-4.30867,0,2.18528,2.18528,0,1,0,4.30867,0Zm7.06053-3.58895h-.03668v-.9436H137.297v9.07953h2.58942V12.63028c0-1.40574.18622-2.9966,1.97878-2.9966a1.83217,1.83217,0,0,1,1.07186.3329l.31455-2.40423a3.00673,3.00673,0,0,0-1.07284-.22187A2.59979,2.59979,0,0,0,139.92311,8.57919Zm13.02874-5.8069V16.71512h-2.58942v-.85h-.03662a3.03219,3.03219,0,0,1-2.43994,1.14712c-2.6637,0-4.18039-2.42446-4.18039-4.88177,0-2.40515,1.535-4.79,4.14279-4.79a3.19972,3.19972,0,0,1,2.47754,1.1278h.03662v-5.696ZM150.622,12.16814a2.17545,2.17545,0,1,0-4.29124,0,2.17794,2.17794,0,1,0,4.29124,0Zm-65.87787,4.547h2.71963V10.57728H91.4019V8.20876H87.46372V5.13983h4.19582V2.77229H84.74409ZM129.65316,5.37377c-.00829-.00025.21029-2.54427.21029-2.54554a6.597,6.597,0,0,0-1.57008.19767,8.5408,8.5408,0,0,0-5.02868,3.93854,36.68022,36.68022,0,0,0-2.15921,4.31677l-.25892.56518c-.05716.12468-.13674.28238-.22656.452l-2.054-4.95794h-1.43748l-2.10028,5.091-2.00486-4.79591h-2.82871l4.17747,9.26484h1.33242l2.16287-5.52818,1.94416,5.52818c.40559,0,1.3108.00024,1.3108.00024s.02321-.05356.03467-.07738c.373-.776,2.5495-5.6422,3.41437-7.33207a12.74052,12.74052,0,0,1,1.41713-2.23142A4.76129,4.76129,0,0,1,129.65316,5.37377ZM16.0308,11.78068,19.14028,6.7121A9.85507,9.85507,0,1,1,17.4397,3.7115L14.66133,8.24139,12.6,5.29741a1.50883,1.50883,0,0,0-2.6641.376L8.5746,9.65072,7.37484,8.12679a1.50883,1.50883,0,0,0-2.62673.48478L3.066,14.0146a1.50891,1.50891,0,1,0,2.88145.897L6.77782,12.247l1.141,1.44926a1.50909,1.50909,0,0,0,2.61315-.445l1.29753-3.792L13.508,11.85715a1.50919,1.50919,0,0,0,2.52281-.07647ZM20.37328,0a1.95764,1.95764,0,1,0,1.957,1.95784A1.95771,1.95771,0,0,0,20.37328,0Z"/></g></g></svg>
