<svg id="Layer_2" xmlns="http://www.w3.org/2000/svg" viewBox="0 0 481.83 136.3"><defs><style>.cls-1{fill:#ffe300}.cls-1,.cls-2,.cls-3,.cls-4{stroke-width:0}.cls-2{fill:#fff}.cls-3{fill:#008896}.cls-4{fill:#db0080}</style></defs><g id="_デザイン"><polygon class="cls-3" points="479.75 27.73 481.83 16.19 436.15 16.19 436.15 16.19 382.02 16.19 381.04 21.66 294.4 21.66 295.38 16.19 157.12 16.19 156.02 22.31 105.79 22.31 106.89 16.19 45.14 16.19 28.44 16.19 26.35 27.76 51.5 27.76 48.56 44.11 41.94 44.11 37.6 68.17 30.99 68.17 28.78 80.47 67.45 80.47 66 88.52 32.1 88.52 31.08 94.15 1.85 94.15 0 104.39 29.24 104.39 88.01 104.39 86.84 110.89 426.2 110.89 426.2 110.89 459.65 110.89 460.75 104.82 444.97 104.82 448.17 87.04 442.5 87.04 448.62 53.11 454.29 53.11 454.68 50.92 471.52 50.92 472.66 44.65 455.81 44.65 457.33 36.22 417.67 36.22 419.2 27.73 479.75 27.73"/><polygon class="cls-1" points="388.6 110.89 366.35 110.89 366.35 110.89 130.59 110.89 130.59 110.89 118.19 110.89 117.23 116.22 129.63 116.22 128.07 124.91 107.89 124.91 106.84 130.71 121.41 130.71 120.4 136.3 142.39 136.3 142.39 136.3 353.92 136.3 355.41 128.04 363.26 128.04 365.23 117.12 387.47 117.12 388.6 110.89"/><path class="cls-4" d="M142.88 124.66c3.4.68 6.72 1.92 9.05 3.67-.24.47-.82 1.57-1.09 2.2-1.86-1.48-4.7-2.93-8.76-3.73l.8-2.13zm2.03-4.65c2.25.3 5.07 1.38 6.28 2.32-.29.67-.52 1.28-.8 2.23-1.55-1.19-3.94-2.22-6.19-2.5l.71-2.05zm0-4.8c2.78.3 5.44 1.05 7.76 2.4-.24.55-.62 1.63-.8 2.32-1.62-1.2-4.51-2.13-7.55-2.6l.6-2.12zM166.3 117.84c.51 0 .8-.12 1.1-.25l.91 1.05c-.35.48-1.52 2.45-2.24 3.68-3.44 5.79-7.55 7.7-8.84 8.3-.21-.38-.43-.75-1.35-1.63 5.92-2.47 8.18-6.92 9.29-9.1h-4.26c-1.32 1.63-2.6 2.93-4.4 4.43-.55-.78-.72-1.03-1.32-1.53 1.89-1.45 4.69-3.98 6.49-7.5l1.71.98c.07.03.2.1.17.25-.03.17-.32.22-.41.22-.26.4-.42.65-.72 1.1h3.86zM182.15 120.66c-1.24.13-2.38.28-5.8 1.73-.81.35-3.99 1.7-4.35 3.72-.22 1.22.91 1.68 3.68 1.68 2.35 0 3.91-.43 5.31-.88-.26.62-.43 1.1-.65 2.52-1.97.4-4.19.5-5.2.5-2.7 0-3.67-.47-4.31-.87-.85-.55-1.35-1.55-1.12-2.8.36-2 2.01-3.43 4.17-4.65-.65-.92-.57-2.02-.43-4.17.03-.45.05-.9-.06-1.63l2.7-.6c-.21.8-.31 1.18-.4 1.7-.31 1.73-.21 3.05.06 3.75 2.31-1.07 3.1-1.37 6.03-2.48l.37 2.48zM188.99 116.86c.23.08.3.12.27.27-.04.2-.26.23-.37.25-.83 1.62-1.41 3.3-1.72 5.02-.42 2.35.04 4.03.59 4.03s1.61-1.85 2.14-2.78c.19.37.52.97 1.11 1.48-1.68 3.03-3.17 4.29-3.99 4.29-1.01 0-2.75-2.17-1.85-7.19.37-2.05 1.04-3.97 1.81-6.04l2 .67zm7.58.22c1.53 3.07 1.79 6 1.54 8.45-.34.12-.72.27-2.32 1.03.47-3.65-.1-6.17-1.14-8.32l1.91-1.17zM201.21 121.03c.76-.12.97-.18 2.78-.63 1.89-.47 3.1-.77 4.43-.77 3.54 0 3.76 2.78 3.49 4.27-.31 1.72-1.38 3.59-4.03 4.69-1.43.6-3.58.8-4.44.83 0-.85-.08-1.34-.28-2.1.27.02.59.05 1.06.05 1.66 0 5.2-.28 5.77-3.43.11-.62.32-2.45-1.94-2.45-1.82 0-4.69 1.1-6.52 1.97l-.33-2.42zM218.52 115.81c.24.03.34.05.31.23-.03.17-.26.25-.39.28-.9 2.58-1.63 6.59-1.79 7.49-.52 2.87-.47 3.99.95 3.99 2.61 0 5.53-3.39 6.43-4.85.59 1.13.94 1.57 1.21 1.87-3.29 4.37-6.45 5.34-8.26 5.34-3.48 0-2.94-3.6-2.34-6.94.19-1.05 1.19-5.69 1.37-6.64.12-.68.13-.8.17-1.13l2.34.37zM233.96 118.38c.31.05.4.07.37.23s-.19.22-.35.27c-.13.47-.16.62-.42 1.82 1.26-.02 2.79-.25 4.09-.63l-.47 2.02c-1.23.42-3.49.55-3.96.55-.33 2-.32 2.45-.31 2.72 1.66.55 3.1 1.43 4.08 2.35-.75.78-.87.9-1.47 1.62a7.177 7.177 0 00-2.85-2.03c-.23 1.28-.75 2.62-3.34 2.62s-2.99-1.7-2.84-2.53c.27-1.5 2.18-2.55 4.63-2.35.09-.6.47-3.22.56-3.77.33-1.98.36-2.58.41-3.2l1.89.33zm-3.77 8.24c-.38 0-1.72.02-1.88.88-.15.82.91.82 1.14.82 1.37 0 1.47-.93 1.55-1.62-.28-.07-.49-.08-.81-.08zM245.24 116.38c.21.1.33.13.3.28-.03.17-.19.2-.43.23-.42.87-1.6 3.28-2.26 6.92-.17.97-.17 1.3-.19 1.83.07-.13.73-1.27 1.06-1.73.19.47.44.85.83 1.18-.28.43-1.58 2.55-1.8 4.19l-1.94.57c-.23-1.47-.44-3.28.14-6.47.55-3.07 1.42-5.34 2.38-7.84l1.9.83zm2.61 7.79c-.42.72-.6 1.18-.64 1.43-.15.83.52 1 2.18 1 1.09 0 2.48-.07 3.95-.45-.4 1.05-.56 2-.6 2.32-.96.15-2.63.23-3.6.23-3.07 0-4.22-.75-3.92-2.4.06-.35.26-1.25 1-2.48l1.64.35zm-.42-6.85c.42.03.95.08 1.81.08 1.43 0 3.05-.08 4.74-.53-.18 1.53-.18 1.87-.19 2.17-1.64.35-3.29.48-4.9.48-.84 0-1.39-.03-1.84-.07l.38-2.13zM263.64 126.6h5.57l-.39 2.15h-13.28l.39-2.15h5.51l1.31-7.27h-4.05l.4-2.22h10.37l-.4 2.22h-4.11l-1.31 7.27zM282.55 117.84c.51 0 .8-.12 1.1-.25l.91 1.05c-.35.48-1.51 2.45-2.24 3.68-3.44 5.79-7.55 7.7-8.84 8.3-.21-.38-.43-.75-1.35-1.63 5.92-2.47 8.18-6.92 9.29-9.1h-4.26c-1.32 1.63-2.6 2.93-4.4 4.43-.55-.78-.72-1.03-1.32-1.53 1.89-1.45 4.69-3.98 6.49-7.5l1.71.98c.07.03.2.1.17.25-.03.17-.32.22-.41.22-.26.4-.42.65-.72 1.1h3.86zM295.77 115.47l2.15.13c.14.02.24.05.22.17-.03.18-.22.27-.3.3l-.51 2.83h2.79l-.4 2.2h-2.79c-.63 3.5-1.66 4.87-2.17 5.57-1.22 1.65-2.84 2.94-4.63 3.65-.26-.68-.67-1.22-1.28-1.77 2.74-.97 4.09-2.72 4.55-3.43.75-1.2 1.06-2.55 1.35-4.02h-3.17l-.71 3.93h-2.1l.71-3.93h-2.97l.4-2.2h2.97l.6-3.33 2 .13c.13.02.32.02.29.2-.02.12-.14.18-.29.27l-.49 2.73h3.17l.62-3.43zM311.41 115.47l2.15.13c.14.02.24.05.22.17-.03.18-.22.27-.3.3l-.51 2.83h2.79l-.4 2.2h-2.79c-.63 3.5-1.66 4.87-2.17 5.57-1.22 1.65-2.84 2.94-4.63 3.65-.26-.68-.67-1.22-1.28-1.77 2.74-.97 4.09-2.72 4.55-3.43.75-1.2 1.06-2.55 1.35-4.02h-3.17l-.71 3.93h-2.1l.71-3.93h-2.97l.4-2.2h2.97l.6-3.33 2 .13c.13.02.32.02.29.2-.02.12-.14.18-.29.27l-.49 2.73h3.17l.62-3.43zM323.8 130.13h-2.21l1.43-7.92c-2.96 1.72-4.45 2.28-5.15 2.55-.25-.73-.68-1.43-1.2-2 5.17-1.53 9.49-4.94 12.05-7.79l1.56 1.53c.08.08.11.15.1.23-.03.15-.19.22-.32.22-.08 0-.2-.02-.27-.05-1.3 1.37-2.77 2.52-4.26 3.63l-1.73 9.59zM332.3 118.56l.38-2.12h7.79c.25 0 .8-.03 1.08-.13l.82 1.22c-.38.43-.62.8-.77 1.07-.92 1.6-1.5 2.6-2.66 4.12 1.14 1.02 3.23 3.5 4.06 4.95-.65.63-1.7 1.67-1.92 1.9-.45-.93-1.5-3.08-3.58-5.09-1.29 1.43-4.29 4.09-7.2 5.32-.31-.9-.49-1.28-1.09-1.95.98-.35 3.38-1.25 6.13-3.9 2-1.92 2.87-3.48 3.87-5.39h-6.92zm11.19-2.78c.31.38.88 1.27 1.04 1.7-.07.05-.72.58-1.06.88-.1-.2-.58-1.2-1.01-1.82l1.03-.77zm1.41-1.1c.15.18.75.97 1.1 1.65-.36.22-.63.43-1.12.92-.53-1.03-.75-1.37-1.04-1.72l1.06-.85z"/><polygon class="cls-1" points="457.4 91.75 418.05 91.75 419.27 84.98 458.62 84.98 457.4 91.75"/><polygon class="cls-1" points="457.74 57.69 441.31 57.69 442.53 50.92 458.96 50.92 457.74 57.69"/><polygon class="cls-1" points="58.05 44.11 26.83 44.11 28.1 37.08 59.32 37.08 58.05 44.11"/><polygon class="cls-1" points="41.88 70.48 22.47 70.48 23.43 65.16 42.84 65.16 41.88 70.48"/><polygon class="cls-1" points="128.57 7.03 51.6 7.03 52.87 0 129.84 0 128.57 7.03"/><polygon class="cls-1" points="373.66 10.95 343.74 10.95 344.95 4.26 374.87 4.26 373.66 10.95"/><polygon class="cls-4" points="42.28 11.86 16.33 11.86 17.47 5.52 43.42 5.52 42.28 11.86"/><polygon class="cls-4" points="154.42 16.13 125.96 16.13 126.73 11.87 155.19 11.87 154.42 16.13"/><polygon class="cls-4" points="471.64 5.63 390.89 5.63 391.91 0 472.66 0 471.64 5.63"/><polygon class="cls-3" points="195.37 11.48 174.87 11.48 175.88 5.9 196.38 5.9 195.37 11.48"/><polygon class="cls-4" points="69.45 128.75 8.38 128.75 9.76 121.06 70.83 121.06 69.45 128.75"/><polygon class="cls-3" points="96.8 136.3 73.82 136.3 74.83 130.71 97.81 130.71 96.8 136.3"/><polygon class="cls-1" points="58.95 116.22 23.73 116.22 24.49 112 59.71 112 58.95 116.22"/><polygon class="cls-4" points="418.46 122.64 398.59 122.64 399.59 117.12 419.45 117.12 418.46 122.64"/><polygon class="cls-1" points="433.7 136.3 378.9 136.3 379.84 131.05 434.65 131.05 433.7 136.3"/><polygon class="cls-3" points="479.08 126.01 431.01 126.01 432.12 119.88 480.18 119.88 479.08 126.01"/><path class="cls-2" d="M254.77 88.19l-.62 3.45h-1.76l.62-3.45h-.63l.26-1.44h.63l.13-.73c.07-.4.17-.73.29-.97.1-.2.24-.39.41-.57.17-.17.37-.32.58-.45a2.72 2.72 0 011.34-.39c.15 0 .28.02.41.05.12.03.24.08.36.13l-.27 1.5c-.11-.06-.21-.1-.3-.13a1.055 1.055 0 00-.53-.01c-.08.02-.16.07-.23.14-.08.07-.14.17-.18.3-.05.13-.09.31-.13.53l-.11.61h1.24l-.26 1.44h-1.24zM258.13 89.49c-.13.74.16 1.11.87 1.11.38 0 .7-.15.95-.46h1.7c-.55 1.12-1.51 1.68-2.88 1.68-.42 0-.8-.06-1.12-.19-.33-.12-.6-.3-.81-.53-.21-.23-.35-.5-.43-.82-.08-.32-.08-.67-.01-1.07.07-.41.2-.77.39-1.1.19-.33.42-.6.71-.83.28-.23.6-.4.97-.53.36-.12.76-.19 1.19-.19s.79.06 1.1.19c.32.12.57.3.76.54.19.24.32.52.38.86.06.34.05.72-.02 1.15l-.03.18h-3.71zm2.24-1c-.02-.24-.1-.44-.26-.58-.16-.15-.36-.22-.62-.22-.27 0-.51.07-.7.21-.2.14-.34.34-.43.59h2.01zM267.19 86.76h1.77l-.88 4.88h-1.77l.1-.54c-.46.46-1.01.69-1.65.69-.36 0-.69-.07-.97-.2s-.51-.31-.7-.55-.31-.51-.38-.83c-.07-.32-.07-.66 0-1.04.06-.35.18-.68.36-1 .18-.31.4-.59.66-.82.26-.23.56-.42.89-.56s.68-.21 1.05-.21c.62 0 1.1.21 1.43.64l.09-.49zm-2.66 2.43c-.03.16-.03.31 0 .44.03.14.09.25.17.36.08.1.19.18.32.24s.28.09.44.09.31-.03.46-.09c.15-.06.28-.14.4-.24.12-.1.22-.22.31-.35a1.14 1.14 0 00.16-.86c-.04-.14-.1-.26-.18-.36a.871.871 0 00-.32-.24c-.13-.06-.27-.09-.43-.09s-.32.03-.47.09a1.468 1.468 0 00-.7.59c-.08.13-.14.27-.16.42zM271.86 88.19l-.62 3.45h-1.76l.62-3.45h-.58l.26-1.44h.58l.26-1.47h1.76l-.26 1.47h1l-.26 1.44h-1zM272.98 90.73c.03-.15.08-.3.17-.43.08-.14.19-.25.31-.36.12-.1.26-.18.41-.24.15-.06.3-.09.46-.09s.3.03.43.09.24.14.32.24c.08.1.14.22.18.36.03.14.04.28 0 .43-.03.15-.08.3-.17.43-.08.14-.19.25-.31.36s-.26.18-.41.24c-.15.06-.3.09-.46.09s-.3-.03-.43-.09a.871.871 0 01-.32-.24.768.768 0 01-.18-.36.893.893 0 010-.43zM106.64 84.5l.92.62c-1.32 3.48-3.32 5.95-6.46 7.32l-.71-1.2c2.89-1.14 4.55-3.01 5.43-5.35h-5.38l.25-1.39h5.95zM114.06 92.44h-1.21l.63-3.47c-.8.48-1.6.9-2.32 1.19l-.42-1.12c1.78-.57 4.43-2.35 5.58-3.67l.77.8c-.57.6-1.37 1.27-2.24 1.89l-.79 4.38zM123 86.61c.21.55.41 1.45.47 2.06l-1.12.49c-.03-.53-.24-1.56-.45-2.06l1.1-.49zm4.94.04c-.83 2.67-2.71 4.87-5 5.8l-.55-1.16c2.22-.78 3.66-2.51 4.39-4.92l1.16.27zm-3.03-.48c.19.55.36 1.47.42 2.09l-1.14.49c0-.55-.19-1.59-.38-2.13l1.1-.46zM138.91 88.69l-1.11 1.25c-.78-.78-1.82-1.55-2.84-2.17l-.84 4.68h-1.37l1.64-9.11h1.37l-.51 2.82c1.23.68 2.62 1.63 3.65 2.52zM147.41 88.23c-.71 1.15-1.58 2.23-2.58 3.14l-.9-.81c.88-.76 1.85-1.86 2.38-2.85l1.1.52zm5.54-1.49h-3.26l-.73 4.02c-.22 1.23-.75 1.69-1.69 1.69-.33 0-.81-.02-1.27-.06l.25-1.4c.29.04.65.06.91.06.3 0 .42-.11.49-.47l.69-3.85h-3.22l.25-1.37h3.22l.36-2.02h1.35l-.36 2.02h3.26l-.25 1.37zm-1.62.89c.6.96 1.05 1.9 1.4 2.88l-1.31.75c-.27-.99-.72-1.95-1.32-2.92l1.23-.71zm.65-4.04c.3.37.46.66.66 1.1l-.63.49c-.19-.45-.37-.76-.65-1.11l.62-.48zm1.17-.7c.3.35.46.65.68 1.09l-.63.49c-.19-.45-.36-.75-.66-1.1l.62-.48zM165.69 84.88l.87.5c-1.43 3.65-3.24 5.81-6.3 7.12l-.68-1.2c2.87-1.04 4.39-3.02 5.19-5.13h-2.54c-.85 1.05-1.8 2.05-2.67 2.73l-.85-.92c1.57-1.14 3.18-3.17 3.99-4.68l1.16.5c-.19.34-.43.71-.67 1.07h2.5zM174.93 87.26l-.84 1.21c-.61-.42-1.46-.89-2.17-1.18l.84-1.23c.71.3 1.67.83 2.17 1.2zm3.97-1.28l.66 1.1c-1.74 2.3-4.75 4.43-7.41 5.33l-.44-1.41c2.59-.68 5.48-2.7 7.18-5.02zm-2.56-1.01l-.84 1.19c-.6-.44-1.39-.92-2.09-1.24l.84-1.19c.72.35 1.59.87 2.08 1.24zM188.29 85.93l-1.09 1.22c-.43-.53-1.34-1.37-2.05-1.82l1.04-1.2c.73.52 1.61 1.25 2.1 1.8zm3.27.01l.66 1.14c-1.74 2.3-4.75 4.43-7.41 5.33l-.44-1.43c2.59-.69 5.48-2.71 7.18-5.03zM204.32 84.88l.87.5c-1.43 3.65-3.24 5.81-6.3 7.12l-.68-1.2c2.87-1.04 4.39-3.02 5.19-5.13h-2.54c-.85 1.05-1.8 2.05-2.67 2.73l-.85-.92c1.57-1.14 3.18-3.17 3.99-4.68l1.16.5c-.19.34-.43.71-.67 1.07h2.5zm.49-1.6c.31.42.48.73.69 1.23l-.7.52c-.19-.49-.36-.84-.67-1.23l.69-.52zm1.28-.54c.31.42.49.72.7 1.23l-.7.52c-.2-.49-.37-.84-.67-1.23l.68-.52zM68.91 40.07h19.44l-1.09 6.06H74.79l-1.06 5.88H86.2l-1.12 6.19H72.61L70 72.68h-6.97l5.88-32.6zM91.3 50.93h6.5l-3.92 21.75h-6.5l3.92-21.75zm.77-7.73c.09-.51.27-.98.55-1.43.26-.45.62-.85 1.08-1.19.42-.36.88-.64 1.39-.82.45-.19.95-.28 1.52-.28.52 0 1 .09 1.44.26.4.17.76.45 1.1.82.3.38.5.78.61 1.19.09.46.1.95 0 1.45-.19 1.07-.72 1.97-1.57 2.69-.47.36-.94.64-1.41.83-.52.19-1.03.28-1.52.28s-.97-.1-1.43-.3c-.45-.2-.82-.48-1.1-.82-.29-.33-.5-.74-.62-1.22-.12-.43-.12-.92-.03-1.45zM103.79 56.72h-2.33l1.05-5.79h2.33l.9-4.88h6.5l-.9 4.88h2.47l-1.04 5.79h-2.47l-2.88 15.96h-6.5l2.88-15.96zM212.35 50.93l6.13.04-.3 2c.6-1.01 4.26-3.17 9.17-2.22 4.33.84 5.61 4.57 5.27 6.97-.1.68-.15 1.06-.31 1.96l-2.34 13h-6.57l1.95-10.82c.23-1.29 1.24-6.28-3.65-5.52-4.24.65-4.9 6.03-5.02 6.69l-1.74 9.65h-6.5l3.92-21.75zM125.63 40.08h8.86c.86 0 1.76.03 2.7.08.95.05 1.77.16 2.46.31 2.54.58 4.16 2.06 4.86 4.43.38 1.32.45 2.66.2 4.04a11.3 11.3 0 01-.82 2.6c-.76 1.61-1.87 2.85-3.31 3.74.04.03.17.1.38.22.74.49 1.35 1.11 1.82 1.87.45.77.74 1.63.86 2.58.12.97.08 2-.11 3.08-.24 1.36-.72 2.66-1.43 3.89-1.57 2.74-3.79 4.47-6.64 5.21-.92.25-2.01.4-3.28.47-1.27.07-2.44.1-3.52.1h-8.9l5.88-32.6zm2.06 26.61c.77 0 1.58 0 2.44-.02.86-.01 1.63-.07 2.32-.17.49-.07.84-.16 1.07-.26v.02a3.87 3.87 0 001.54-.91c.17-.14.39-.39.64-.74.44-.65.72-1.29.84-1.93.13-.71.06-1.4-.2-2.08a3.05 3.05 0 00-1.18-1.35c-.41-.19-.85-.33-1.32-.43-.61-.1-1.37-.15-2.3-.15h-2.4l-1.45 8.03zm2.45-13.61c1.37 0 2.87-.06 4.49-.17 1.59-.1 2.56-1.14 2.92-3.13v-.07c.35-2.03-.21-3.14-1.65-3.35-1.44-.21-2.94-.31-4.49-.31l-1.27 7.03zM146.15 61.82c.13-.74.35-1.5.66-2.3.31-.81.67-1.53 1.08-2.17.42-.69.91-1.36 1.47-2 .54-.62 1.16-1.22 1.85-1.78.62-.49 1.32-.97 2.1-1.43.77-.42 1.52-.77 2.25-1.04.68-.26 1.48-.48 2.38-.65.88-.15 1.69-.22 2.41-.22 1.64 0 3.15.29 4.53.87.6.26 1.24.61 1.89 1.06.63.46 1.16.96 1.6 1.48.48.56.88 1.16 1.21 1.78.33.62.58 1.29.75 2 .17.64.27 1.35.3 2.15.02.71-.04 1.46-.18 2.26-.14.8-.35 1.56-.62 2.3-.27.67-.63 1.4-1.08 2.19-.5.78-.99 1.45-1.47 2-.59.64-1.2 1.22-1.84 1.74-.76.62-1.49 1.11-2.18 1.48-.76.45-1.52.81-2.28 1.08h-.02c-.79.28-1.58.49-2.38.65-.9.14-1.7.22-2.41.22-.71 0-1.48-.07-2.31-.22-.61-.13-1.32-.35-2.12-.65h-.02c-.73-.3-1.36-.66-1.89-1.06-.64-.48-1.16-.97-1.58-1.48-.5-.58-.91-1.17-1.21-1.78-.34-.64-.59-1.3-.75-2-.19-.65-.3-1.37-.32-2.17 0-.84.07-1.61.19-2.3zm17.55.04c.29-1.62 0-2.99-.86-4.1-.42-.54-.92-.95-1.51-1.24-.62-.27-1.28-.41-1.99-.41-.73 0-1.44.14-2.14.41-.67.29-1.33.7-1.95 1.24-.65.58-1.16 1.19-1.53 1.84-.39.7-.66 1.45-.81 2.26-.15.83-.15 1.57 0 2.24.14.71.43 1.32.86 1.85.43.56.93.98 1.51 1.24.54.27 1.2.41 1.99.41.77 0 1.48-.14 2.14-.41.67-.26 1.32-.67 1.95-1.24.63-.53 1.13-1.15 1.51-1.85.4-.65.67-1.4.82-2.24zM168.11 72.68l1.28-1.41 9.19-10.22-4.67-8.7-.74-1.41h7.37l.22.39 2.1 4.12h.02l.33.65c.09.17.14.3.17.39l.06-.09c.06-.09.15-.2.27-.35.12-.14.28-.35.48-.61l.03-.04 3.6-4.08.34-.39h7.35l-1.28 1.41-7.81 8.75 5.47 10.18.74 1.41h-7.32l-.2-.39-2.85-5.23-.02-.02-.13-.26c-.1-.19-.19-.37-.28-.54-.09-.17-.16-.34-.22-.5-.1.13-.28.35-.54.67l.02.02-.56.65-4.62 5.21-.36.39h-7.41zM253.02 50.93l-.24 1.32c-.31-.32-.66-.61-1.04-.87-.61-.38-1.3-.67-2.06-.87-.84-.19-1.67-.28-2.48-.28-1.52 0-2.93.27-4.23.8-1.33.55-2.55 1.37-3.68 2.45a13.78 13.78 0 00-2.75 3.69c-.69 1.39-1.19 2.92-1.5 4.6-.31 1.74-.38 3.32-.21 4.75.19 1.46.65 2.71 1.37 3.76a6.667 6.667 0 002.88 2.39c1.18.53 2.53.8 4.07.8.75 0 1.51-.08 2.26-.24.71-.15 1.42-.38 2.14-.7.58-.26 1.15-.59 1.71-1l-.05.3c-.57 2.41-1.35 3.68-2.83 4.34-2.29 1.03-5.45.38-5.85-1.5s-.12 0-.12 0l-6.77 2.08c2.73 7.14 19.8 10.61 22.36-6.24l3.53-19.6h-6.5zm-1.82 10.81c-.17.96-.44 1.79-.81 2.5-.34.68-.8 1.3-1.36 1.87-.57.55-1.15.93-1.72 1.15-.61.26-1.26.39-1.96.39-.74 0-1.38-.12-1.93-.37-.54-.22-.95-.56-1.23-1.04-.34-.48-.55-1.06-.61-1.76-.08-.8-.04-1.65.13-2.56.16-.91.44-1.77.82-2.56.3-.67.72-1.27 1.28-1.8.5-.48 1.05-.85 1.66-1.11.65-.23 1.33-.35 2.06-.35.77 0 1.42.12 1.93.35.49.25.9.59 1.23 1.04.33.52.54 1.11.61 1.76.09.72.05 1.56-.12 2.5z"/><polygon class="cls-2" points="204.33 48.08 210.39 40.63 200.97 40.63 204.33 48.08"/><polygon class="cls-2" points="204.16 49.03 194.8 71.91 199.16 76.65 205.23 71.91 204.16 49.03"/><polygon class="cls-4" points="203.06 68.56 196.17 68.56 197.87 64.42 203.81 64.42 203.06 68.56"/><path d="M422.48 45.61h-24.33l-5.51 5.07c-.57-3.67-3.81-5.07-5.92-5.07h-21.23v-2.62c-.05-2.34-1.87-5.81-6.65-5.81-2.52 0-4.05 1.02-4.89 1.87-.35.36-.63.73-.85 1.1-1.24-2.03-3.51-2.85-5.13-2.85h-6.14v-5.78h-13.18l-.03 5.77H316.5v1.03a6.328 6.328 0 00-3.42-1.03h-17.64a6.89 6.89 0 00-1.5-.23v-5.53h-13.18l-.02 5.54h-6.08v12.81h2.28l-11.29 10.59v17.86l15.19-14.17v16.72h13.04v-7.84l2.82 2.66v5.18h22.38V58.2h.46v22.67h20.09c.36 0 3.61-.05 6.94-1.66 2-.97 4.24-2.58 5.72-5.24v6.89h26.48v11.92l8.62 8.62 41.09-38.44V51.51c0-3.82-3.08-5.88-5.99-5.88zm4.74 16.79l-39.81 37.24-5.26-5.26-1.5-1.5-.64-.64V79.58h-26.48V69.49h33.16c2.3 0 4.74 1.62 4.74 4.63v7.47l25.01-23.32v-1.34h-13.52c-1.17 1.08-13.6 12.45-13.6 12.45V65.8c-.93 1.74-2.74 2.47-4.09 2.52h-30.27V58.23h30.19c1.33.01 3.22.73 4.17 2.49V56.1c-.83.54-1.75.79-2.53.82H353.52v-.79c-.81.51-1.72.76-2.47.79h-2.89c2.56 1.96 4.55 5.1 4.55 9.94 0 6.58-3.64 9.72-6.7 11.2-3.08 1.49-6.07 1.53-6.4 1.53h-18.84V56.92h-2.96V79.6h-19.89v-4.47c-1.49-1.4-4.57-4.31-5.32-5.02v9.49h-10.54V61.25l-15.19 14.17V60.97l13.21-12.38h-4.19v-10.3h6.1c-.01-.12-.02-.23-.02-.34v-.03l.02-5.17h10.69v5.15-.04c0 .07 0 .22-.02.41h.92c.6 0 1.16.08 1.68.24h17.82c2.09 0 4.29 1.35 4.67 3.85v-3.85h12.17a5.62 5.62 0 01-.06-.56v-.03l.02-5.17h10.69v5.15-.04c0 .1 0 .34-.05.66h7.45c1.84 0 4.76 1.36 4.76 5 0 1.47-.47 2.57-1.15 3.37.62.09 1.31.32 1.94.72v-4.55.04c0-.3.03-1.89 1.31-3.19.67-.68 1.91-1.49 4-1.49 3.89 0 5.36 2.75 5.4 4.59V46.84h22.48c1.84 0 4.76 1.37 4.76 5.01 0 .7-.11 1.32-.29 1.86l7.45-6.86h23.85c2.3 0 4.74 1.62 4.74 4.63v10.91zm-73.51-4.22v5.76c-.39-2.19-1.24-4.13-2.52-5.77.36-.02.73-.07 1.09-.16v.17h1.43zm37.06 11.58l12.63-11.57h11.3l-22.02 20.53v-4.59c0-1.91-.77-3.38-1.91-4.37z" fill="#00808c" stroke-width="0"/><rect class="cls-2" x="332.21" y="46.49" width="6.09" height="2.92"/><path class="cls-2" d="M329.19 64.25h9.72s2.42.01 2.42 2.67-2.42 2.73-2.42 2.73h-9.72v2.25h10.7s4.41 0 4.41-4.84-4.41-4.88-4.41-4.88h-10.7v2.07z"/><path class="cls-2" d="M422.48 46.86h-23.85l-7.45 6.86c.18-.54.29-1.16.29-1.86 0-3.64-2.92-5-4.76-5h-22.48v-3.84c-.04-1.85-1.52-4.59-5.4-4.59-2.09 0-3.33.81-4 1.49-1.28 1.3-1.32 2.89-1.31 3.19v-.04 4.55c-.63-.39-1.32-.63-1.94-.72.68-.8 1.15-1.9 1.15-3.37 0-3.64-2.92-5-4.76-5h-7.45c.05-.32.05-.56.05-.66v-5.11h-10.69l-.02 5.17v.03c0 .18.03.37.06.56h-12.17V42.37c-.39-2.5-2.59-3.85-4.67-3.85h-17.82c-.52-.16-1.08-.24-1.68-.24h-.92c.02-.19.02-.34.02-.41v-5.11h-10.69l-.02 5.17v.03c0 .11.01.22.02.33h-6.1v10.3h4.19l-13.21 12.38v14.45l15.19-14.17V79.6h10.54v-9.49c.75.71 3.84 3.62 5.32 5.02v4.47h19.89V56.92h2.96v22.67h18.84c.33 0 3.31-.04 6.4-1.53 3.06-1.48 6.7-4.62 6.7-11.2 0-4.84-1.99-7.98-4.55-9.94h2.89c.76-.03 1.66-.27 2.47-.79v.79h33.26c.77-.03 1.7-.28 2.53-.82v4.62c-.95-1.76-2.84-2.47-4.17-2.47h-30.19v10.07h30.27c1.35-.04 3.16-.78 4.09-2.52v3.58s12.42-11.38 13.6-12.45h13.52v1.34c-.88.83-14.66 13.67-25.01 23.32v-7.47c0-3.01-2.44-4.63-4.74-4.63h-33.16v10.09H380v12.66l.64.64 1.5 1.5 5.26 5.26 39.81-37.24V51.49c0-3.01-2.44-4.63-4.74-4.63zm-66.61 25.2h30.82s2.39 0 2.39 2.29v10.44l-6.09 5.78V77.46h-27.12v-5.4zm62.91-12.55v-4.7H402l-10.35 9.47v-7.61l7.89-7.26h22.93s2.39 0 2.39 2.29v9.89l-37.41 35-4.08-4.08 35.4-33zm-68.41 7.57c0 10.38-10.75 10.38-10.75 10.38h-16.49V56.61h16.49s10.75.08 10.75 10.47zM317.14 54.8v-5.4h9.06v-2.91h-6.1v-5.4h27.88s2.42.01 2.42 2.67-2.42 2.73-2.42 2.73h-3.66v2.93h6.66s2.42 0 2.42 2.66-2.42 2.73-2.42 2.73h-33.84zm21.1-19.48v2.81s.04 2.3-2.97 2.3-3.06-2.3-3.06-2.3v-2.81h6.03zm17.63 19.48V43.28s-.04-2.3 2.97-2.3 3.06 2.3 3.06 2.3v6.12l24.82.01s2.42 0 2.42 2.66-2.42 2.73-2.42 2.73h-30.84zm-86.65 7.42l16.79-15.73h-7.77v-5.62s14.45-.02 15.34-.02c1.74 0 2.93 1.15 2.93 2.83 0 1.24-1.6 2.62-1.6 2.62l-25.69 23.97v-8.04zm21.12-26.9v2.81s.04 2.3-2.97 2.3-3.06-2.3-3.06-2.3v-2.81h6.03zm25.13 8.06v34.11h-6.09v-31h-12.13v-5.4h15.83s2.39 0 2.39 2.29zm-9.16 6.58v27.53h-6.04V49.96s-.01-2.07 3.07-2.07 2.97 2.07 2.97 2.07zm-6.79-2.63v7.83l-3.17 2.86s-2.23 1.75-3.92-.39.44-4.11.44-4.11l6.66-6.2zm-9.25 30.15h-5.86v-18.9c0-1.21.35-1.98 1.64-2.81 1-.64 2.58-.39 3.44.47.38.38 6.91 6.52 6.91 6.52v7.93l-6.13-5.78v12.57zm67.04-11.28v-5.4h27.85s2.42.01 2.42 2.67-2.42 2.73-2.42 2.73h-27.85z"/><path class="cls-4" d="M424.87 61.59V51.7c0-2.29-2.39-2.29-2.39-2.29h-22.93l-7.89 7.26v7.61l10.35-9.47h16.78v4.7l-35.4 33 4.08 4.08 37.41-35zM287.37 40.43c3.01 0 2.97-2.3 2.97-2.3v-2.81h-6.01v2.81s.04 2.3 3.04 2.3zM296.51 43.67c0-1.68-1.19-2.83-2.93-2.83-.9 0-15.34.02-15.34.02v5.62h7.77l-16.79 15.73v8.04l25.69-23.97s1.6-1.38 1.6-2.62zM296.39 62.77s-6.53-6.14-6.91-6.52c-.86-.86-2.44-1.11-3.44-.47-1.29.84-1.64 1.6-1.64 2.81v18.9h5.86V64.92l6.13 5.78v-7.93zM292.42 57.64c1.69 2.14 3.92.39 3.92.39l3.17-2.86v-7.83l-6.66 6.2s-2.13 1.97-.44 4.11z"/><path class="cls-4" d="M297.25 41.08v5.4h12.13v31h6.09V43.37c0-2.29-2.39-2.29-2.39-2.29h-15.83z"/><path class="cls-4" d="M300.27 49.96v27.53h6.04V49.96s.12-2.07-2.97-2.07-3.07 2.07-3.07 2.07zM382.99 90.57l6.09-5.78V74.35c0-2.29-2.39-2.29-2.39-2.29h-30.82v5.4h27.12v13.11zM389.13 52.07c0-2.66-2.42-2.66-2.42-2.66h-24.83l.01-6.13s-.05-2.3-3.06-2.3-2.97 2.3-2.97 2.3V54.8h30.84s2.42-.08 2.42-2.73zM387.57 63.47c0-2.65-2.42-2.65-2.42-2.65H357.3v5.39h27.85s2.42-.08 2.42-2.73zM335.27 40.43c3.01 0 2.97-2.3 2.97-2.3v-2.81h-6.01v2.81s.04 2.3 3.05 2.3zM323.12 56.62v20.85h16.49s10.75 0 10.75-10.38-10.75-10.47-10.75-10.47h-16.49zm21.18 10.45c0 4.84-4.41 4.84-4.41 4.84h-10.7v-2.25h9.72s2.42-.08 2.42-2.73-2.42-2.66-2.42-2.66h-9.72v-2.08h10.7s4.41.04 4.41 4.88zM353.4 52.07c0-2.66-2.42-2.66-2.42-2.66h-6.66v-2.93h3.66s2.42-.08 2.42-2.73-2.42-2.65-2.42-2.65H320.1v5.39h6.1v2.92h-9.06v5.4h33.84s2.42-.08 2.42-2.73zm-15.1-2.66h-6.09v-2.92h6.09v2.92z"/><path class="cls-2" d="M286.07 84.36h-2.31v2.29h-.62v-2.29h-3.36v7.8h3.36V89.5h.62v2.66h3.36v-7.8h-1.06z"/><path class="cls-4" d="M284.82 87.71v-2.29h1.25v5.68h-1.25v-2.66h-2.73v2.66h-1.25v-5.68h1.25v2.29h2.73z"/><path class="cls-2" d="M291.31 84.36h-1.59l-3.73 7.8h3.49s.48-1.2.68-1.69h.75l.63 1.69h3.69l-3.21-7.8h-.71z"/><path class="cls-4" d="M291.31 85.42l2.34 5.68h-1.37l-.63-1.69h-2.21l-.68 1.69h-1.09l2.72-5.68h.92zm.08 3.32l-.8-2.15-.87 2.15h1.67z"/><path class="cls-2" d="M300.06 84.36h-6.77v2.87h2.22v4.93h3.37v-4.93h2.23v-2.87h-1.06z"/><path class="cls-4" d="M300.06 85.42v.75h-2.23v4.93h-1.26v-4.93h-2.22v-.75h5.71z"/><path class="cls-2" d="M300.06 86.97c0 .83.34 1.4.79 1.81-.03.1-.08.23-.08.23l-.22.12c-.29.17-.61.47-.61 1.04v.13l.09.67c.05.51.38.9.93 1.05.52.16 1.36.25 1.87.25.89 0 1.71-.27 2.32-.76.65-.52 1.02-1.28 1.02-2.07 0-1-.49-1.58-1.09-2 0-.03.03-.07.03-.07l.21-.11c.31-.17.62-.48.62-1.04v-.13l-.07-.61v-.07a1.23 1.23 0 00-.71-.88c-.3-.12-1.04-.27-1.74-.27-1.97 0-3.35 1.12-3.35 2.72z"/><path class="cls-4" d="M304.88 86.17q0 .11-.05.14l-.21.11s-.05.03-.07.03c-.05 0-.25-.15-.3-.18-.22-.11-.6-.26-1.03-.26-.62 0-.97.29-.97.72 0 .46.27.57 1.2 1 .94.43 1.66.75 1.66 1.7s-.91 1.77-2.28 1.77c-.46 0-1.18-.09-1.6-.21-.13-.04-.14-.06-.15-.16l-.08-.62c0-.11 0-.12.05-.15l.21-.12s.05-.03.06-.03.25.15.3.18c.68.36 1.13.37 1.32.37.76 0 1.03-.4 1.03-.78 0-.46-.35-.6-1.11-.93-.88-.38-1.76-.75-1.76-1.78s.98-1.66 2.29-1.66c.62 0 1.22.14 1.31.18.08.04.08.07.1.15l.06.53z"/><path class="cls-2" d="M312.14 84.36h-1.96v4.04c0 .31 0 .7-.04.8 0 0-.17.1-.51.1-.18 0-.25-.03-.3-.05 0-.13-.01-.44-.01-.44v-4.45h-3.36v4.5c0 .79 0 1.78.83 2.56.81.76 1.84.85 2.54.85.44 0 1.78 0 2.81-.93.94-.84.97-1.95.99-2.94l.1-4.04h-1.08z"/><path class="cls-4" d="M308.26 85.42v3.39c0 .64 0 .9.25 1.17.2.22.57.38 1.12.38s1.04-.17 1.32-.48c.29-.31.29-.74.29-1.47v-2.98h.91l-.07 2.96c-.03 1.03-.08 1.68-.64 2.18-.73.65-1.74.65-2.1.65-.66 0-1.33-.1-1.82-.56-.45-.42-.49-.94-.49-1.78v-3.44h1.25z"/><path class="cls-2" d="M319.75 84.36h-1.97s.03 1.77.04 2.27l-2.06-2.27h-2.43l-.04 7.8h3.04l-.04-2.34 2.37 2.59 2.15-.55v-7.5h-1.05z"/><path class="cls-4" d="M315.29 85.42l3.64 4-.07-4h.9v5.62l-.74.19-3.83-4.2.07 4.07h-.9l.03-5.68h.91z"/><path class="cls-2" d="M326.21 84.36h-5.18v7.8h6.34v-2.87h-.39v-2.11h.3v-2.82h-1.06z"/><path class="cls-4" d="M326.21 85.42v.7h-2.88v1.64h2.58v.71h-2.58v1.88h2.98v.75h-4.22v-5.68h4.12z"/><path class="cls-2" d="M337.93 84.36h-1.79s-.86 1.68-1.41 2.77c-.52-1.08-1.33-2.77-1.33-2.77h-2.77l-.53 7.8h3.09s0-.4.01-.71l.37.78 1.88-.29s.4-.76.43-.82l.03 1.04h3.32l-.28-7.8h-1.02z"/><path class="cls-4" d="M332.73 85.42l1.97 4.09 2.09-4.09h1.14l.21 5.68h-1.2l-.13-4.02-2.04 3.89-.57.09-1.98-4.14-.06 4.18h-.91l.39-5.68h1.12z"/><polygon class="cls-2" points="341.6 84.36 339.29 84.36 339.29 92.16 342.66 92.16 342.66 84.36 341.6 84.36"/><path class="cls-4" d="M341.6 85.42v5.68h-1.25v-5.68h1.25z"/><path class="cls-2" d="M349.02 84.36h-1.82s-.72.78-1 1.08v-1.08h-3.36v7.8h3.36v-.96l.71.96h4.31s-2.6-3.33-3.29-4.22c.73-.7 3.71-3.58 3.71-3.58h-2.62z"/><path class="cls-4" d="M345.15 85.42v5.68h-1.25v-5.68h1.25zm3.87 0l-2.51 2.42 2.55 3.26h-1.6l-2.23-3.03 2.45-2.65h1.35z"/><path class="cls-2" d="M355.57 84.36h-1.96v4.04c0 .31 0 .7-.04.8 0 0-.17.1-.51.1-.18 0-.25-.03-.3-.05 0-.13-.01-.44-.01-.44v-4.45h-3.36v4.5c0 .79 0 1.78.83 2.56.81.76 1.84.85 2.54.85.44 0 1.78 0 2.81-.93.94-.84.97-1.95.99-2.94l.1-4.04h-1.08z"/><path class="cls-4" d="M351.69 85.42v3.39c0 .64 0 .9.25 1.17.2.22.57.38 1.12.38s1.04-.17 1.32-.48c.29-.31.29-.74.29-1.47v-2.98h.91l-.07 2.96c-.03 1.03-.08 1.68-.65 2.18-.73.65-1.74.65-2.1.65-.66 0-1.33-.1-1.82-.56-.45-.42-.49-.94-.49-1.78v-3.44h1.25z"/></g></svg>